<svg width="176" height="175" viewBox="0 0 176 175" fill="none" xmlns="http://www.w3.org/2000/svg">
<path d="M120.068 55.4316C119.265 54.6214 118.309 53.9783 117.256 53.5395C116.202 53.1007 115.072 52.8747 113.931 52.8747C112.79 52.8747 111.66 53.1007 110.607 53.5395C109.554 53.9783 108.598 54.6214 107.794 55.4316L88 75.3123L68.2057 55.4316C66.5781 53.8039 64.3705 52.8895 62.0686 52.8895C59.7668 52.8895 57.5592 53.8039 55.9316 55.4316C54.3039 57.0592 53.3895 59.2668 53.3895 61.5686C53.3895 63.8705 54.3039 66.0781 55.9316 67.7057L75.8123 87.5L55.9316 107.294C55.1214 108.098 54.4783 109.054 54.0395 110.107C53.6007 111.16 53.3747 112.29 53.3747 113.431C53.3747 114.572 53.6007 115.702 54.0395 116.756C54.4783 117.809 55.1214 118.765 55.9316 119.568C56.7351 120.379 57.6911 121.022 58.7444 121.46C59.7978 121.899 60.9276 122.125 62.0686 122.125C63.2097 122.125 64.3395 121.899 65.3928 121.46C66.4462 121.022 67.4022 120.379 68.2057 119.568L88 99.6877L107.794 119.568C108.598 120.379 109.554 121.022 110.607 121.46C111.66 121.899 112.79 122.125 113.931 122.125C115.072 122.125 116.202 121.899 117.256 121.46C118.309 121.022 119.265 120.379 120.068 119.568C120.879 118.765 121.522 117.809 121.96 116.756C122.399 115.702 122.625 114.572 122.625 113.431C122.625 112.29 122.399 111.16 121.96 110.107C121.522 109.054 120.879 108.098 120.068 107.294L100.188 87.5L120.068 67.7057C120.879 66.9022 121.522 65.9462 121.96 64.8928C122.399 63.8395 122.625 62.7097 122.625 61.5686C122.625 60.4276 122.399 59.2978 121.96 58.2444C121.522 57.1911 120.879 56.2351 120.068 55.4316ZM149.112 26.3884C141.138 18.1328 131.6 11.5477 121.054 7.01761C110.508 2.48749 99.1661 0.102997 87.6889 0.00326361C76.2118 -0.0964698 64.8297 2.09055 54.2068 6.43673C43.5839 10.7829 33.9329 17.2012 25.8171 25.3171C17.7012 33.4329 11.2829 43.0839 6.93673 53.7068C2.59055 64.3297 0.40353 75.7118 0.503264 87.1889C0.602997 98.6661 2.98749 110.008 7.51761 120.554C12.0477 131.1 18.6328 140.638 26.8884 148.612C34.8621 156.867 44.4 163.452 54.9458 167.982C65.4915 172.512 76.8339 174.897 88.3111 174.997C99.7882 175.096 111.17 172.909 121.793 168.563C132.416 164.217 142.067 157.799 150.183 149.683C158.299 141.567 164.717 131.916 169.063 121.293C173.409 110.67 175.596 99.2882 175.497 87.8111C175.397 76.3339 173.012 64.9915 168.482 54.4458C163.952 43.9 157.367 34.3621 149.112 26.3884ZM136.924 136.424C125.618 147.742 110.738 154.79 94.8182 156.368C78.8985 157.945 62.9244 153.954 49.6175 145.074C36.3105 136.195 26.4939 122.976 21.8402 107.67C17.1866 92.3644 17.9837 75.9185 24.0958 61.1346C30.2079 46.3506 41.2568 34.1432 55.3601 26.5921C69.4635 19.041 85.7487 16.6135 101.441 19.723C117.134 22.8325 131.263 31.2868 141.421 43.6454C151.579 56.004 157.138 71.5024 157.15 87.5C157.181 96.5871 155.409 105.59 151.937 113.988C148.466 122.386 143.363 130.011 136.924 136.424Z" fill="#EA7878"/>
</svg>
