<svg width="172" height="172" viewBox="0 0 172 172" fill="none" xmlns="http://www.w3.org/2000/svg">
<path d="M109.392 58.394L72.498 95.374L58.308 81.184C57.5371 80.2837 56.5883 79.5525 55.5214 79.0363C54.4544 78.5201 53.2923 78.2301 52.1079 78.1843C50.9235 78.1386 49.7424 78.3381 48.6388 78.7705C47.5353 79.2029 46.5329 79.8587 45.6948 80.6968C44.8567 81.5349 44.2009 82.5372 43.7685 83.6408C43.3362 84.7444 43.1366 85.9254 43.1824 87.1098C43.2281 88.2942 43.5182 89.4564 44.0344 90.5233C44.5506 91.5903 45.2818 92.539 46.182 93.31L66.392 113.606C67.1956 114.403 68.1486 115.034 69.1964 115.462C70.2442 115.89 71.3662 116.107 72.498 116.1C74.7542 116.09 76.9162 115.195 78.518 113.606L121.518 70.606C122.324 69.8065 122.964 68.8553 123.4 67.8073C123.837 66.7594 124.062 65.6353 124.062 64.5C124.062 63.3647 123.837 62.2406 123.4 61.1926C122.964 60.1446 122.324 59.1935 121.518 58.394C119.907 56.7922 117.727 55.8932 115.455 55.8932C113.183 55.8932 111.003 56.7922 109.392 58.394ZM86 0C68.9908 0 52.3636 5.04381 38.221 14.4936C24.0784 23.9434 13.0555 37.3748 6.5464 53.0892C0.0372624 68.8036 -1.66582 86.0954 1.6525 102.778C4.97083 119.46 13.1615 134.784 25.1889 146.811C37.2162 158.838 52.5399 167.029 69.2223 170.347C85.9046 173.666 103.196 171.963 118.911 165.454C134.625 158.944 148.057 147.922 157.506 133.779C166.956 119.636 172 103.009 172 86C172 74.7063 169.776 63.5232 165.454 53.0892C161.132 42.6552 154.797 33.1746 146.811 25.1888C138.825 17.203 129.345 10.8683 118.911 6.54636C108.477 2.22446 97.2937 0 86 0V0ZM86 154.8C72.3927 154.8 59.0909 150.765 47.7768 143.205C36.4627 135.645 27.6444 124.9 22.4371 112.329C17.2298 99.757 15.8673 85.9237 18.522 72.5778C21.1767 59.2319 27.7292 46.9729 37.3511 37.351C46.9729 27.7292 59.2319 21.1766 72.5778 18.522C85.9237 15.8673 99.7571 17.2298 112.329 22.4371C124.9 27.6444 135.645 36.4627 143.205 47.7768C150.765 59.0909 154.8 72.3926 154.8 86C154.8 104.247 147.551 121.746 134.649 134.649C121.746 147.551 104.247 154.8 86 154.8V154.8Z" fill="#F9F8F3"/>
</svg>
