<svg width="148" height="144" viewBox="0 0 148 144" fill="none" xmlns="http://www.w3.org/2000/svg">
<path d="M139.778 1.24886e-06C138.698 -0.000554396 137.628 0.190875 136.631 0.563346C135.633 0.935816 134.726 1.48202 133.962 2.17073C133.199 2.85944 132.593 3.67715 132.18 4.5771C131.767 5.47705 131.555 6.44159 131.556 7.41557V7.82583C124.621 15.5803 115.857 21.8427 105.9 26.1571C95.9437 30.4715 85.0459 32.7294 74 32.7665H24.6667C18.1269 32.7729 11.8569 35.1188 7.23258 39.2895C2.60823 43.4602 0.0071385 49.115 0 55.0132V69.8443C0.0071385 75.7425 2.60823 81.3973 7.23258 85.568C11.8569 89.7387 18.1269 92.0846 24.6667 92.091H28.6445L8.88871 133.666C8.35184 134.793 8.13388 136.023 8.25439 137.246C8.3749 138.468 8.83011 139.644 9.57915 140.669C10.3282 141.693 11.3476 142.534 12.5459 143.116C13.7442 143.697 15.0838 144.001 16.4444 144H49.3333C50.9429 144.001 52.5172 143.575 53.8605 142.775C55.2039 141.976 56.2571 140.838 56.8891 139.503L79.2844 92.3728C89.403 93.0429 99.2619 95.5766 108.252 99.8175C117.243 104.058 125.174 109.917 131.556 117.03V121.753C131.556 123.72 132.422 125.606 133.964 126.997C135.506 128.388 137.597 129.169 139.778 129.169C141.958 129.169 144.05 128.388 145.592 126.997C147.134 125.606 148 123.72 148 121.753V7.41557C148.001 6.44158 147.788 5.47704 147.375 4.57709C146.962 3.67713 146.357 2.85942 145.593 2.17071C144.83 1.482 143.923 0.935793 142.925 0.563326C141.927 0.190859 140.858 -0.000564155 139.778 1.24886e-06ZM24.6667 77.2599C22.4864 77.2586 20.3959 76.4769 18.8543 75.0865C17.3126 73.6961 16.4459 71.8106 16.4444 69.8443V55.0132C16.4459 53.0469 17.3127 51.1615 18.8543 49.7711C20.396 48.3807 22.4865 47.5989 24.6667 47.5976H32.8889V77.2599H24.6667ZM43.9134 129.169H28.9143L46.531 92.091H61.5302L43.9134 129.169ZM131.556 95.9605C115.343 83.9148 95.0051 77.3064 74 77.2595H49.3333V47.5972H74C95.0055 47.5488 115.344 40.9392 131.556 28.8927V95.9605Z" fill="#F9F8F3"/>
</svg>
