<svg width="148" height="148" viewBox="0 0 148 148" fill="none" xmlns="http://www.w3.org/2000/svg">
<path d="M91.464 90.502C86.5173 94.4903 80.3544 96.6653 74 96.6653C67.6457 96.6653 61.4828 94.4903 56.536 90.502C55.0248 89.2459 53.0765 88.6416 51.1198 88.822C49.163 89.0024 47.3581 89.9528 46.102 91.464C44.846 92.9752 44.2417 94.9235 44.4221 96.8802C44.6025 98.837 45.5528 100.642 47.064 101.898C54.6219 108.207 64.1548 111.663 74 111.663C83.8453 111.663 93.3781 108.207 100.936 101.898C102.447 100.642 103.398 98.837 103.578 96.8802C103.758 94.9235 103.154 92.9752 101.898 91.464C101.276 90.7157 100.513 90.0973 99.6519 89.644C98.7909 89.1906 97.8491 88.9113 96.8803 88.822C94.9235 88.6416 92.9752 89.2459 91.464 90.502ZM53.354 63.196C54.7405 64.5742 56.616 65.3478 58.571 65.3478C60.526 65.3478 62.4015 64.5742 63.788 63.196C65.1663 61.8095 65.9399 59.934 65.9399 57.979C65.9399 56.024 65.1663 54.1485 63.788 52.762C59.5532 48.7437 53.9379 46.5037 48.1 46.5037C42.2622 46.5037 36.6469 48.7437 32.412 52.762C31.6374 53.4254 31.0082 54.2417 30.5641 55.1598C30.1199 56.0779 29.8703 57.0779 29.8309 58.097C29.7916 59.1161 29.9633 60.1324 30.3353 61.082C30.7073 62.0316 31.2716 62.894 31.9928 63.6152C32.714 64.3364 33.5764 64.9007 34.526 65.2727C35.4756 65.6447 36.4919 65.8165 37.511 65.7771C38.5301 65.7377 39.5301 65.4881 40.4482 65.0439C41.3663 64.5998 42.1826 63.9706 42.846 63.196C43.534 62.5024 44.3524 61.9519 45.2542 61.5762C46.1559 61.2005 47.1231 61.0071 48.1 61.0071C49.0769 61.0071 50.0441 61.2005 50.9459 61.5762C51.8476 61.9519 52.6661 62.5024 53.354 63.196ZM115.588 52.762C111.353 48.7437 105.738 46.5037 99.9 46.5037C94.0622 46.5037 88.4469 48.7437 84.212 52.762C82.9997 54.1776 82.3662 55.9986 82.4382 57.861C82.5101 59.7234 83.2822 61.49 84.6001 62.8079C85.918 64.1258 87.6846 64.8979 89.547 64.9698C91.4094 65.0418 93.2304 64.4083 94.646 63.196C95.3339 62.5024 96.1524 61.9519 97.0541 61.5762C97.9559 61.2005 98.9231 61.0071 99.9 61.0071C100.877 61.0071 101.844 61.2005 102.746 61.5762C103.648 61.9519 104.466 62.5024 105.154 63.196C106.54 64.5742 108.416 65.3478 110.371 65.3478C112.326 65.3478 114.202 64.5742 115.588 63.196C116.966 61.8095 117.74 59.934 117.74 57.979C117.74 56.024 116.966 54.1485 115.588 52.762ZM74 0C59.3642 0 45.0571 4.34002 32.8878 12.4712C20.7186 20.6025 11.2338 32.1597 5.63295 45.6814C0.032063 59.2031 -1.43338 74.0821 1.42192 88.4367C4.27723 102.791 11.325 115.977 21.6741 126.326C32.0232 136.675 45.2088 143.723 59.5633 146.578C73.9179 149.433 88.7969 147.968 102.319 142.367C115.84 136.766 127.398 127.281 135.529 115.112C143.66 102.943 148 88.6358 148 74C148 64.2822 146.086 54.6595 142.367 45.6814C138.648 36.7033 133.197 28.5456 126.326 21.6741C119.454 14.8026 111.297 9.35176 102.319 5.63291C93.3405 1.91407 83.7178 0 74 0ZM74 133.2C62.2914 133.2 50.8457 129.728 41.1103 123.223C31.3749 116.718 23.7871 107.472 19.3064 96.6548C14.8257 85.8374 13.6533 73.9343 15.9375 62.4506C18.2218 50.967 23.86 40.4185 32.1393 32.1393C40.4186 23.86 50.967 18.2218 62.4507 15.9375C73.9343 13.6533 85.8375 14.8256 96.6549 19.3063C107.472 23.787 116.718 31.3748 123.223 41.1102C129.728 50.8456 133.2 62.2913 133.2 74C133.2 89.7008 126.963 104.759 115.861 115.861C104.759 126.963 89.7008 133.2 74 133.2Z" fill="#F9F8F3"/>
</svg>
